<svg xmlns="http://www.w3.org/2000/svg" xmlns:oryx="http://oryx-editor.org" id="_7A0A67C1-41DF-4AAE-8543-1C6E301412E3" width="601.89453125" height="271" xmlns:xlink="http://www.w3.org/1999/xlink" xmlns:svg="http://www.w3.org/2000/svg"><defs><marker id="_FE798444-2833-4E40-A4D6-52FC7B726F62start" refX="1" refY="5" markerUnits="userSpaceOnUse" markerWidth="17" markerHeight="11" orient="auto" fill="#000000" stroke="#000000">
	  		<path id="_FE798444-2833-4E40-A4D6-52FC7B726F62conditional" d="M 0 5 L 8 0 L 16 5 L 8 10 L 0 5" fill="white" stroke="#000000" stroke-width="1" display="none"/>
			<path id="_FE798444-2833-4E40-A4D6-52FC7B726F62default" d="M 5 0 L 11 10" fill="white" stroke="#000000" stroke-width="1" display="none"/>
	  	</marker><marker id="_FE798444-2833-4E40-A4D6-52FC7B726F62end" refX="15" refY="6" markerUnits="userSpaceOnUse" markerWidth="15" markerHeight="12" orient="auto" fill="#000000" stroke="#000000">
	  		<path id="_FE798444-2833-4E40-A4D6-52FC7B726F62frame2" d="M 0 1 L 15 6 L 0 11z" fill="#000000" stroke="#000000" stroke-linejoin="round" stroke-width="2"/>
	  	</marker><marker id="_83773A30-3F9A-4287-B955-B93A0634D2C7start" refX="1" refY="5" markerUnits="userSpaceOnUse" markerWidth="17" markerHeight="11" orient="auto" fill="#000000" stroke="#000000">
	  		<path id="_83773A30-3F9A-4287-B955-B93A0634D2C7conditional" d="M 0 5 L 8 0 L 16 5 L 8 10 L 0 5" fill="white" stroke="#000000" stroke-width="1" display="none"/>
			<path id="_83773A30-3F9A-4287-B955-B93A0634D2C7default" d="M 5 0 L 11 10" fill="white" stroke="#000000" stroke-width="1" display="none"/>
	  	</marker><marker id="_83773A30-3F9A-4287-B955-B93A0634D2C7end" refX="15" refY="6" markerUnits="userSpaceOnUse" markerWidth="15" markerHeight="12" orient="auto" fill="#000000" stroke="#000000">
	  		<path id="_83773A30-3F9A-4287-B955-B93A0634D2C7frame2" d="M 0 1 L 15 6 L 0 11z" fill="#000000" stroke="#000000" stroke-linejoin="round" stroke-width="2"/>
	  	</marker></defs><g stroke="none" font-family="Verdana, sans-serif" font-size-adjust="none" font-style="normal" font-variant="normal" font-weight="normal" line-heigth="normal" font-size="12"><g class="stencils" transform="translate(25.89450877904892, 24.99999999999997)"><g class="me"/><g class="children"><g id="_83DD8EB0-7D3E-4CE8-A0BD-8054998444E3"><g class="stencils" transform="translate(107, 166)"><g class="me"><g pointer-events="fill" id="_83DD8EB0-7D3E-4CE8-A0BD-8054998444E3" title="Start Event">
  
    <defs id="_83DD8EB0-7D3E-4CE8-A0BD-8054998444E3__83DD8EB0-7D3E-4CE8-A0BD-8054998444E3_5">
		<radialGradient id="_83DD8EB0-7D3E-4CE8-A0BD-8054998444E3background" cx="10%" cy="10%" r="100%" fx="10%" fy="10%">
			<stop offset="0%" stop-color="#ffffff" stop-opacity="1" id="_83DD8EB0-7D3E-4CE8-A0BD-8054998444E3__83DD8EB0-7D3E-4CE8-A0BD-8054998444E3_6"/>
			<stop id="_83DD8EB0-7D3E-4CE8-A0BD-8054998444E3fill_el" offset="100%" stop-color="#9acd32" stop-opacity="1"/>
		</radialGradient>
	</defs>
	
    <circle id="_83DD8EB0-7D3E-4CE8-A0BD-8054998444E3bg_frame" cx="15" cy="15" r="15" stroke="#000000" fill="url(#_83DD8EB0-7D3E-4CE8-A0BD-8054998444E3background) white" stroke-width="1"/>
	<text font-size="11" id="_83DD8EB0-7D3E-4CE8-A0BD-8054998444E3text_name" x="15" y="32" oryx:align="top center" stroke="black" stroke-width="0pt" letter-spacing="-0.01px" fill="#000000" text-anchor="middle" transform="rotate(0 15 32)" visibility="inherit" oryx:fontSize="11"><tspan x="15" y="32" dy="11">Start</tspan></text>
  </g></g><g class="children" style="overflow:hidden"/><g class="edge"/></g><g class="controls"><g class="dockers"/><g class="magnets" transform="translate(107, 166)"><g pointer-events="all" display="none" transform="translate(7, 7)"><circle cx="8" cy="8" r="4" stroke="none" fill="red" fill-opacity="0.3"/></g></g></g></g><g id="_D63BE24D-9BC9-4F6C-976C-955B716AAB98"><g class="stencils" transform="translate(285, 141)"><g class="me"><g pointer-events="fill" oryx:minimumSize="50 40" id="_D63BE24D-9BC9-4F6C-976C-955B716AAB98" title="Task">
  	<defs id="_D63BE24D-9BC9-4F6C-976C-955B716AAB98__D63BE24D-9BC9-4F6C-976C-955B716AAB98_17">
		<radialGradient id="_D63BE24D-9BC9-4F6C-976C-955B716AAB98background" cx="10%" cy="10%" r="100%" fx="10%" fy="10%">
			<stop offset="0%" stop-color="#ffffff" stop-opacity="1" id="_D63BE24D-9BC9-4F6C-976C-955B716AAB98__D63BE24D-9BC9-4F6C-976C-955B716AAB98_18"/>
			<stop id="_D63BE24D-9BC9-4F6C-976C-955B716AAB98fill_el" offset="100%" stop-color="#fafad2" stop-opacity="1"/>
		</radialGradient>
		<radialGradient id="_D63BE24D-9BC9-4F6C-976C-955B716AAB98borderbackground" cx="10%" cy="10%" r="100%" fx="10%" fy="10%">
			<stop offset="0%" stop-color="#ffffff" stop-opacity="1" id="_D63BE24D-9BC9-4F6C-976C-955B716AAB98__D63BE24D-9BC9-4F6C-976C-955B716AAB98_19"/>
			<stop id="_D63BE24D-9BC9-4F6C-976C-955B716AAB98fill_border" offset="100%" stop-color="#000000" stop-opacity="1" stroke="#000000"/>
		</radialGradient>
	</defs>
	
	<rect id="_D63BE24D-9BC9-4F6C-976C-955B716AAB98text_frame" oryx:anchors="bottom top right left" x="1" y="1" width="94" height="79" rx="10" ry="10" stroke="none" stroke-width="0" fill="none"/>
	<rect id="_D63BE24D-9BC9-4F6C-976C-955B716AAB98bg_frame" oryx:resize="vertical horizontal" x="0" y="0" width="100" height="80" rx="10" ry="10" stroke="#000000" stroke-width="1" fill="url(#_D63BE24D-9BC9-4F6C-976C-955B716AAB98background) #ffffcc"/>
		<text font-size="12" id="_D63BE24D-9BC9-4F6C-976C-955B716AAB98text_name" x="50" y="40" oryx:align="middle center" oryx:fittoelem="text_frame" stroke="black" stroke-width="0pt" letter-spacing="-0.01px" fill="#000000" text-anchor="middle" transform="rotate(0 50 40)" visibility="inherit" oryx:fontSize="12"><tspan x="50" y="40" dy="-7">Asset </tspan><tspan x="50" y="40" dy="5">Application </tspan><tspan x="50" y="40" dy="17">Verification</tspan></text>
    <g id="_D63BE24D-9BC9-4F6C-976C-955B716AAB98manualTask" transform="scale(0.7,0.7) translate(8,8)" display="none">
    	<path oryx:anchors="top left" id="_D63BE24D-9BC9-4F6C-976C-955B716AAB98frame" style="opacity:1;fill:none;fill-opacity:1;stroke-width:1" d="M0.5,3.751l4.083-3.25c0,0,11.166,0.083,12.083,0.083s-2.417,2.917-1.5,2.917     s11.667,0,12.584,0c1.166,1.708-0.168,3.167-0.834,3.667s0.875,1.917-1,4.417c-0.75,0.25,0.75,1.875-1.333,3.333     c-1.167,0.583,0.583,1.542-1.25,2.833c-1.167,0-20.833,0.083-20.833,0.083l-2-1.333V3.751z" stroke="#000000"/>
		<path id="_D63BE24D-9BC9-4F6C-976C-955B716AAB98frame2" oryx:anchors="top left" style="opacity:1;fill:none;stroke-width:2" d="M 13.5 7 L 27 7" stroke="#000000"/>
		<path id="_D63BE24D-9BC9-4F6C-976C-955B716AAB98frame3" oryx:anchors="top left" style="opacity:1;fill:none;stroke-width:2" d="M 13.5 11 L 26 11" stroke="#000000"/>
		<path id="_D63BE24D-9BC9-4F6C-976C-955B716AAB98frame4" oryx:anchors="top left" style="opacity:1;fill:none;stroke-width:1.5" d="M 14 14.5 L 25 14.5" stroke="#000000"/>
		<path id="_D63BE24D-9BC9-4F6C-976C-955B716AAB98frame5" oryx:anchors="top left" style="opacity:1;fill:none;stroke-width:1.5" d="M 8.2 3.1 L 15 3.1" stroke="#000000"/>
	</g>
	
	<g id="_D63BE24D-9BC9-4F6C-976C-955B716AAB98businessRuleTask" transform="scale(0.7,0.7) translate(8,8)" display="none">
		<rect id="_D63BE24D-9BC9-4F6C-976C-955B716AAB98frame6" oryx:anchors="top left" x="0" y="0" width="22" height="4" style="opacity:1;fill:#B3B1B3;fill-opacity:1;" stroke="#000000"/>
		<rect id="_D63BE24D-9BC9-4F6C-976C-955B716AAB98frame7" oryx:anchors="top left" x="0" y="4" style="opacity:1;fill:none;" width="22" height="12" stroke="#000000"/>
		<path id="_D63BE24D-9BC9-4F6C-976C-955B716AAB98frame8" oryx:anchors="top left" style="opacity:1;fill:none;" d="M 0 10 L 22 10" stroke="#000000"/>
		<path id="_D63BE24D-9BC9-4F6C-976C-955B716AAB98frame9" oryx:anchors="top left" style="opacity:1; fill:none;" d="M 7 4 L 7 16" stroke="#000000"/>
	</g>
	
	<g id="_D63BE24D-9BC9-4F6C-976C-955B716AAB98scriptTask" transform="scale(0.7,0.7) translate(8,8)" display="none">
		<path oryx:anchors="top left" id="_D63BE24D-9BC9-4F6C-976C-955B716AAB98frame10" style="opacity:1;fill:none;" stroke="#000000" d="M6.402,0.5h14.5c0,0-5.833,2.833-5.833,5.583s4.417,6,4.417,9.167    s-4.167,5.083-4.167,5.083H0.235c0,0,5-2.667,5-5s-4.583-6.75-4.583-9.25S6.402,0.5,6.402,0.5z"/>
		<path oryx:anchors="top left" id="_D63BE24D-9BC9-4F6C-976C-955B716AAB98frame11" style="opacity:1;fill:none;stroke-width:1.5" d="M 3.5 4.5 L 13.5 4.5" stroke="#000000"/>
		<path oryx:anchors="top left" id="_D63BE24D-9BC9-4F6C-976C-955B716AAB98frame12" style="opacity:1;fill:none;stroke-width:1.5" d="M 3.8 8.5 L 13.8 8.5" stroke="#000000"/>
		<path oryx:anchors="top left" id="_D63BE24D-9BC9-4F6C-976C-955B716AAB98frame13" style="opacity:1;fill:none;stroke-width:1.5" d="M 6.3 12.5 L 16.3 12.5" stroke="#000000"/>
		<path oryx:anchors="top left" id="_D63BE24D-9BC9-4F6C-976C-955B716AAB98frame14" style="opacity:1;fill:none;stroke-width:1.5" d="M 6.5 16.5 L 16.5 16.5" stroke="#000000"/>
	</g>
	
	<g id="_D63BE24D-9BC9-4F6C-976C-955B716AAB98userTask" transform="scale(0.7,0.7) translate(8,8)" display="inherit">
		<path id="_D63BE24D-9BC9-4F6C-976C-955B716AAB98frame15" oryx:anchors="top left" style="opacity:1;fill:#F4F6F7" stroke="#000000" d="M0.585,24.167h24.083v-7.833c0,0-2.333-3.917-7.083-5.167h-9.25    c-4.417,1.333-7.833,5.75-7.833,5.75L0.585,24.167z"/>
		<path id="_D63BE24D-9BC9-4F6C-976C-955B716AAB98frame16" oryx:anchors="top left" style="opacity:1;fill:none" d="M 6 20 L 6 24" stroke="#000000"/>
		<path id="_D63BE24D-9BC9-4F6C-976C-955B716AAB98frame17" oryx:anchors="top left" style="opacity:1;fill:none" d="M 20 20 L 20 24" stroke="#000000"/>
		<circle id="_D63BE24D-9BC9-4F6C-976C-955B716AAB98frame18" oryx:anchors="top left" fill="black" cx="13.002" cy="5.916" r="5.417" stroke="#000000"/>
		<path id="_D63BE24D-9BC9-4F6C-976C-955B716AAB98frame19" oryx:anchors="top left" style="opacity:1;fill:#F0EFF0;" stroke="#000000" d="M8.043,7.083c0,0,2.814-2.426,5.376-1.807s4.624-0.693,4.624-0.693    c0.25,1.688,0.042,3.75-1.458,5.584c0,0,1.083,0.75,1.083,1.5s0.125,1.875-1,3s-5.5,1.25-6.75,0S8.668,12.834,8.668,12    s0.583-1.25,1.25-1.917C8.835,9.5,7.419,7.708,8.043,7.083z"/>
	</g>
	
	<g id="_D63BE24D-9BC9-4F6C-976C-955B716AAB98serviceTask" transform="scale(0.7,0.7) translate(8,8)" display="none">
		<polygon oryx:anchors="top left" id="_D63BE24D-9BC9-4F6C-976C-955B716AAB98frame20" style="opacity:1;fill:#ffffff" stroke="#000000" points="15.392,5.064 17.954,2.502 20.347,4.895 17.786,7.455     18.729,9.732 22.353,9.732 22.353,13.115 18.731,13.115 17.788,15.392 20.351,17.955 17.958,20.347 15.397,17.786 13.12,18.729     13.12,22.353 9.737,22.353 9.737,18.731 7.46,17.788 4.897,20.35 2.506,17.958 5.066,15.397 4.124,13.12 0.5,13.12 0.5,9.737     4.121,9.737 5.065,7.461 2.503,4.898 4.895,2.506 7.455,5.066 9.732,4.125 9.732,0.5 13.116,0.5 13.116,4.121 "/>
		<circle oryx:anchors="top left" id="_D63BE24D-9BC9-4F6C-976C-955B716AAB98frame21" style="opacity:1;fill:none" stroke="#000000" cx="11.427" cy="11.426" r="3.714"/>
		<polygon oryx:anchors="top left" id="_D63BE24D-9BC9-4F6C-976C-955B716AAB98frame22" style="opacity:1;fill:#ffffff" stroke="#000000" points="21.392,11.064 23.954,8.502 26.347,10.895 23.786,13.455     24.729,15.732 28.353,15.732 28.353,19.115 24.731,19.115 23.788,21.392 26.351,23.955 23.958,26.347 21.397,23.786 19.12,24.729     19.12,28.353 15.737,28.353 15.737,24.731 13.46,23.788 10.897,26.35 8.506,23.958 11.066,21.397 10.124,19.12 6.5,19.12     6.5,15.737 10.121,15.737 11.065,13.461 8.503,10.898 10.895,8.506 13.455,11.066 15.732,10.125 15.732,6.5 19.116,6.5     19.116,10.121 "/>
		<circle oryx:anchors="top left" id="_D63BE24D-9BC9-4F6C-976C-955B716AAB98frame23" style="opacity:1;fill:none;" stroke="#000000" cx="17.427" cy="17.426" r="3.714"/>
	</g>
	
	<g id="_D63BE24D-9BC9-4F6C-976C-955B716AAB98sendTask" display="none">
		<path id="_D63BE24D-9BC9-4F6C-976C-955B716AAB98frame24" oryx:anchors="left top" stroke="#000000" fill="black" stroke-width="1" d="M8,11 L8,21 L24,21 L24,11 L16,17z"/>
		<path id="_D63BE24D-9BC9-4F6C-976C-955B716AAB98frame25" oryx:anchors="left top" stroke="#000000" fill="black" stroke-width="1" d="M7,10 L16,17 L25 10z"/>
	</g>
	
	<g id="_D63BE24D-9BC9-4F6C-976C-955B716AAB98receiveTask" display="none">
		<path id="_D63BE24D-9BC9-4F6C-976C-955B716AAB98frame26" oryx:anchors="left top" stroke="#000000" fill="none" stroke-width="1" d="M8,11 L8,21 L24,21 L24,11z M8,11 L16,17 L24,11"/>
	</g>
	
	<g id="_D63BE24D-9BC9-4F6C-976C-955B716AAB98none" display="none"/>
  </g></g><g class="children" style="overflow:hidden"/><g class="edge"/></g><g class="controls"><g class="dockers"/><g class="magnets" transform="translate(285, 141)"><g pointer-events="all" display="none" transform="translate(-7, 12)"><circle cx="8" cy="8" r="4" stroke="none" fill="red" fill-opacity="0.3"/></g><g pointer-events="all" display="none" transform="translate(-7, 32)"><circle cx="8" cy="8" r="4" stroke="none" fill="red" fill-opacity="0.3"/></g><g pointer-events="all" display="none" transform="translate(-7, 52)"><circle cx="8" cy="8" r="4" stroke="none" fill="red" fill-opacity="0.3"/></g><g pointer-events="all" display="none" transform="translate(17, 71)"><circle cx="8" cy="8" r="4" stroke="none" fill="red" fill-opacity="0.3"/></g><g pointer-events="all" display="none" transform="translate(42, 71)"><circle cx="8" cy="8" r="4" stroke="none" fill="red" fill-opacity="0.3"/></g><g pointer-events="all" display="none" transform="translate(67, 71)"><circle cx="8" cy="8" r="4" stroke="none" fill="red" fill-opacity="0.3"/></g><g pointer-events="all" display="none" transform="translate(91, 12)"><circle cx="8" cy="8" r="4" stroke="none" fill="red" fill-opacity="0.3"/></g><g pointer-events="all" display="none" transform="translate(91, 32)"><circle cx="8" cy="8" r="4" stroke="none" fill="red" fill-opacity="0.3"/></g><g pointer-events="all" display="none" transform="translate(91, 52)"><circle cx="8" cy="8" r="4" stroke="none" fill="red" fill-opacity="0.3"/></g><g pointer-events="all" display="none" transform="translate(17, -7)"><circle cx="8" cy="8" r="4" stroke="none" fill="red" fill-opacity="0.3"/></g><g pointer-events="all" display="none" transform="translate(42, -7)"><circle cx="8" cy="8" r="4" stroke="none" fill="red" fill-opacity="0.3"/></g><g pointer-events="all" display="none" transform="translate(67, -7)"><circle cx="8" cy="8" r="4" stroke="none" fill="red" fill-opacity="0.3"/></g><g pointer-events="all" display="none" transform="translate(42, 32)"><circle cx="8" cy="8" r="4" stroke="none" fill="red" fill-opacity="0.3"/></g></g></g></g><g id="_CAC34D3D-26E9-4BD4-BCBF-20A4EB80DD36"><g class="stencils" transform="translate(522, 166)"><g class="me"><g pointer-events="fill" id="_CAC34D3D-26E9-4BD4-BCBF-20A4EB80DD36" title="End Event">

    <defs id="_CAC34D3D-26E9-4BD4-BCBF-20A4EB80DD36__CAC34D3D-26E9-4BD4-BCBF-20A4EB80DD36_5">
		<radialGradient id="_CAC34D3D-26E9-4BD4-BCBF-20A4EB80DD36background" cx="10%" cy="10%" r="100%" fx="10%" fy="10%">
			<stop offset="0%" stop-color="#ffffff" stop-opacity="1" id="_CAC34D3D-26E9-4BD4-BCBF-20A4EB80DD36__CAC34D3D-26E9-4BD4-BCBF-20A4EB80DD36_6"/>
			<stop id="_CAC34D3D-26E9-4BD4-BCBF-20A4EB80DD36fill_el" offset="100%" stop-color="#ff6347" stop-opacity="1"/>
		</radialGradient>
	</defs>
	
    <circle id="_CAC34D3D-26E9-4BD4-BCBF-20A4EB80DD36bg_frame" cx="15" cy="15" r="14" stroke="#000000" fill="url(#_CAC34D3D-26E9-4BD4-BCBF-20A4EB80DD36background) white" stroke-width="3"/>
	<text font-size="11" id="_CAC34D3D-26E9-4BD4-BCBF-20A4EB80DD36text_name" x="14" y="30" oryx:align="top center" stroke="black" stroke-width="0pt" letter-spacing="-0.01px" fill="#000000" text-anchor="middle" transform="rotate(0 14 30)" visibility="inherit" oryx:fontSize="11"><tspan x="14" y="30" dy="11">End</tspan></text>
  </g></g><g class="children" style="overflow:hidden"/><g class="edge"/></g><g class="controls"><g class="dockers"/><g class="magnets" transform="translate(522, 166)"><g pointer-events="all" display="none" transform="translate(6, 6)"><circle cx="8" cy="8" r="4" stroke="none" fill="red" fill-opacity="0.3"/></g></g></g></g></g><g class="edge"><g id="_FE798444-2833-4E40-A4D6-52FC7B726F62"><g class="stencils"><g class="me" title="Sequence Flow"><g pointer-events="painted"><path id="_FE798444-2833-4E40-A4D6-52FC7B726F62_1" d="M137.9765625 181L284.078125 181 " stroke="#000000" fill="none" stroke-width="2" stroke-linecap="round" stroke-linejoin="round" marker-start="url(#_FE798444-2833-4E40-A4D6-52FC7B726F62start)" marker-end="url(#_FE798444-2833-4E40-A4D6-52FC7B726F62end)"/></g><text id="_FE798444-2833-4E40-A4D6-52FC7B726F62text_name" font-size="12" x="151.9765625" y="167" oryx:edgePosition="startTop" stroke-width="0pt" letter-spacing="-0.01px" fill="#000000" text-anchor="start" transform="rotate(360 137.9765625 181)" visibility="inherit" oryx:fontSize="12"/></g><g class="children" style="overflow:hidden"/><g class="edge"/></g><g class="controls"><g class="dockers"/><g class="magnets"/></g></g><g id="_83773A30-3F9A-4287-B955-B93A0634D2C7"><g class="stencils"><g class="me" title="Sequence Flow"><g pointer-events="painted"><path id="_83773A30-3F9A-4287-B955-B93A0634D2C7_1" d="M385.46483137429846 180.74893118719254L522.4375123757015 180.06747506280746 " stroke="#000000" fill="none" stroke-width="2" stroke-linecap="round" stroke-linejoin="round" marker-start="url(#_83773A30-3F9A-4287-B955-B93A0634D2C7start)" marker-end="url(#_83773A30-3F9A-4287-B955-B93A0634D2C7end)"/></g><text id="_83773A30-3F9A-4287-B955-B93A0634D2C7text_name" font-size="12" x="399.46483137429846" y="166.74893118719254" oryx:edgePosition="startTop" stroke-width="0pt" letter-spacing="-0.01px" fill="#000000" text-anchor="start" transform="rotate(359.7149487224162 385.46483137429846 180.74893118719254)" visibility="inherit" oryx:fontSize="12"/></g><g class="children" style="overflow:hidden"/><g class="edge"/></g><g class="controls"><g class="dockers"/><g class="magnets"/></g></g></g><path id="processFormP1" title="Edit Process Form" style="opacity:1;fill:#339966;stroke:#000000" d="M0.585,24.167h24.083v-7.833c0,0-2.333-3.917-7.083-5.167h-9.25 c-4.417,1.333-7.833,5.75-7.833,5.75L0.585,24.167z" onclick="ORYX.Plugins.CanvasTitle.editProcessForm()" transform="translate(10, 20)"/><path id="processFormP2" title="Edit Process Form" style="opacity:1;fill:none;stroke:#000000" d="M 6 20 L 6 24" onclick="ORYX.Plugins.CanvasTitle.editProcessForm()" transform="translate(10, 20)"/><path id="processFormP3" title="Edit Process Form" style="opacity:1;fill:none;stroke:#000000" d="M 20 20 L 20 24" onclick="ORYX.Plugins.CanvasTitle.editProcessForm()" transform="translate(10, 20)"/><circle id="processFormP4" title="Edit Process Form" fill="#000000" stroke="#000000" cx="13.002" cy="5.916" r="5.417" onclick="ORYX.Plugins.CanvasTitle.editProcessForm()" transform="translate(10, 20)"/><path id="processFormP5" title="Edit Process Form" style="opacity:1;fill:#FFCC99;stroke:#000000" d="M8.043,7.083c0,0,2.814-2.426,5.376-1.807s4.624-0.693,4.624-0.693 c0.25,1.688,0.042,3.75-1.458,5.584c0,0,1.083,0.75,1.083,1.5s0.125,1.875-1,3s-5.5,1.25-6.75,0S8.668,12.834,8.668,12 s0.583-1.25,1.25-1.917C8.835,9.5,7.419,7.708,8.043,7.083z" onclick="ORYX.Plugins.CanvasTitle.editProcessForm()" transform="translate(10, 20)"/><text id="_C1D58F58-DA8C-4534-B529-528249CF0295" style="stroke-width:1;fill:rgb(177,194,214);font-family:arial;font-weight:bold" font-size="12" onclick="ORYX.Plugins.CanvasTitle.openTextualAnalysis()" onmouseover="ORYX.Plugins.CanvasTitle.addToolTip('_C1D58F58-DA8C-4534-B529-528249CF0295')" transform="translate(40, 43)">AssetFinanceApplication (ke.co.workpoint.assetfinance.AssetFinanceApplication)</text></g></g></svg>